<svg width="130.000000" height="22.000000" viewBox="0 0 130 22" fill="none" xmlns="http://www.w3.org/2000/svg" xmlns:xlink="http://www.w3.org/1999/xlink">
	<desc>
			Created with Pixso.
	</desc>
	<defs>
		<clipPath id="clip2435_8871">
			<rect id="logo" width="130.000000" height="21.999998" fill="white" fill-opacity="0"/>
		</clipPath>
	</defs>
	<g clip-path="url(#clip2435_8871)">
		<path id="Vector" d="M-0.000244141 11.0996C-0.000244141 5 3.2998 1.2998 8.69971 1.2998C12.7998 1.2998 16.0999 3.7998 16.6997 7.5C16.7998 7.89941 16.4998 8.2002 16.0999 8.2002L13.4998 8.2002C13.1997 8.2002 12.9998 8 12.8997 7.7002C12.3997 5.7998 10.7998 4.59961 8.69971 4.59961C5.7998 4.59961 3.99976 7.09961 3.99976 11.0996C3.99976 15.0996 5.7998 17.5996 8.7998 17.5996C10.8997 17.5996 12.3997 16.5 12.9998 14.7002C13.0999 14.3994 13.2998 14.2002 13.5999 14.2002L16.1997 14.2002C16.5999 14.2002 16.8997 14.5996 16.7998 14.8994C16.1997 18.5 12.9998 20.8994 8.7998 20.8994C3.2998 20.8994 -0.000244141 17.0996 -0.000244141 11.0996ZM78.9998 19.7002L78.9998 5.5C78.9998 5.2002 78.7998 5 78.4998 5L74.0999 5C73.7 5 73.2998 4.7002 73.2998 4.2002L73.2998 2.5C73.2998 2.10059 73.5999 1.7002 74.0999 1.7002L87.7 1.7002C88.0999 1.7002 88.4998 2 88.4998 2.5L88.4998 4.2002C88.4998 4.60059 88.2 5 87.7 5L83.2998 5C82.9998 5 82.7998 5.2002 82.7998 5.5L82.7998 19.8008C82.7998 20.2002 82.4998 20.5 82.0999 20.5L79.5999 20.5C79.2998 20.4004 78.9998 20.1006 78.9998 19.7002ZM21.3994 20.4004L24.2993 20.4004C24.5994 20.4004 24.8994 20.2002 24.7993 20L24.7993 14.0996C24.7993 13.7998 24.9995 13.5996 25.2993 13.5996L27.5994 13.5996C27.8994 13.5996 28.1995 13.7002 28.2993 14L31.1995 20C31.2993 20.2002 31.4995 20.2998 31.6995 20.2998L34.9995 20.2998C35.2993 20.2998 35.5994 19.9004 35.3994 19.5996L32.2993 13.7002C32.0994 13.4004 32.1995 12.9004 32.5994 12.7002C34.2993 11.7002 35.2993 9.7998 35.2993 7.7002C35.2993 4.09961 32.7993 1.7998 28.6995 1.7998L21.6995 1.7998C21.2993 1.7998 20.8994 2.2002 20.8994 2.59961L20.8994 19.9004C20.8994 20.2002 21.0994 20.4004 21.3994 20.4004ZM51.4995 20.4004L40.4995 20.4004C40.0996 20.4004 39.7996 20.0996 39.7996 19.7002L39.7996 2.5C39.7996 2.09961 40.0996 1.7998 40.4995 1.7998L51.4995 1.7998C51.8997 1.7998 52.1995 2.09961 52.1995 2.5L52.1995 4.40039C52.1995 4.7998 51.8997 5.09961 51.4995 5.09961L44.1995 5.09961C43.8997 5.09961 43.6995 5.2998 43.6995 5.59961L43.6995 9C43.6995 9.2998 43.8997 9.5 44.1995 9.5L50.9995 9.5C51.3997 9.5 51.6995 9.7998 51.6995 10.2002L51.6995 11.9004C51.6995 12.2998 51.3997 12.5996 50.9995 12.5996L44.1995 12.5996C43.8997 12.5996 43.6995 12.7998 43.6995 13.0996L43.6995 16.9004C43.6995 17.2002 43.8997 17.4004 44.1995 17.4004L51.4995 17.4004C51.8997 17.4004 52.1995 17.7002 52.1995 18.0996L52.1995 20C52.1995 20.0996 51.8997 20.4004 51.4995 20.4004ZM61.2996 15.9004L66.9998 15.9004C67.1997 15.9004 67.4998 16.0996 67.4998 16.2998L68.5996 20C68.6997 20.2002 68.8997 20.4004 69.1997 20.4004L72.0996 20.4004C72.4998 20.4004 72.7996 20 72.6997 19.5996L66.6997 2.2002C66.5996 2 66.3997 1.7998 66.0996 1.7998L62.3997 1.7998C62.0996 1.7998 61.8997 2 61.7996 2.2002L55.7996 19.5996C55.6997 20 55.9998 20.4004 56.3997 20.4004L58.9998 20.4004C59.2996 20.4004 59.4998 20.2998 59.5996 20L60.6997 16.2998C60.7996 16.0996 60.9998 15.9004 61.2996 15.9004ZM92.7996 20.4004L103.8 20.4004C104.2 20.4004 104.5 20.0996 104.5 20L104.5 18.0996C104.5 17.7002 104.2 17.4004 103.8 17.4004L96.4995 17.4004C96.1997 17.4004 95.9995 17.2002 95.9995 16.9004L95.9995 13.0996C95.9995 12.7998 96.1997 12.5996 96.4995 12.5996L103.3 12.5996C103.7 12.5996 104 12.2998 104 11.9004L104 10.2002C104 9.7998 103.7 9.5 103.3 9.5L96.4995 9.5C96.1997 9.5 95.9995 9.2998 95.9995 9L95.9995 5.59961C95.9995 5.2998 96.1997 5.09961 96.4995 5.09961L103.8 5.09961C104.2 5.09961 104.5 4.7998 104.5 4.40039L104.5 2.5C104.5 2.09961 104.2 1.7998 103.8 1.7998L92.7996 1.7998C92.3997 1.7998 92.0996 2.09961 92.0996 2.5L92.0996 19.7002C92.0996 20.0996 92.3997 20.4004 92.7996 20.4004ZM25.3994 10.7002C25.0994 10.7002 24.8994 10.5 24.8994 10.2002L24.9995 10.2002L24.9995 5.40039C24.9995 5.09961 25.1995 4.90039 25.4995 4.90039L28.3994 4.90039C30.2993 4.90039 31.4995 6 31.4995 7.7998C31.4995 9.59961 30.3994 10.7002 28.3994 10.7002L25.3994 10.7002ZM66.1997 13L62.0996 13C61.8997 13 61.7996 12.7998 61.8997 12.5996L64.0996 5.59961L64.2996 5.59961L66.4998 12.5996C66.4998 12.7998 66.3997 13 66.1997 13Z" fill="#FFFFFF" fill-opacity="1.000000" fill-rule="evenodd"/>
		<path id="Vector" d="M111.5 1.59961L117.7 9.7002C118.4 10.5 118.4 11.7002 117.7 12.2998L111.5 20.4004C111.1 20.7998 110.6 21 110.1 21C109.6 21 109.1 20.7998 108.7 20.4004C108 19.5996 108 18.4004 108.7 17.5996L113.6 11L108.7 4.40039C108 3.59961 108 2.40039 108.7 1.59961C109.1 1.2002 109.6 1 110.1 1C110.6 1 111.1 1.2002 111.5 1.59961ZM126.542 1.59961L120.343 9.7002C119.643 10.5 119.643 11.7002 120.343 12.2998L126.542 20.4004C126.943 20.7998 127.443 21 127.943 21C128.443 21 128.943 20.7998 129.343 20.4004C130.042 19.5996 130.042 18.4004 129.343 17.5996L124.443 11L129.343 4.40039C130.042 3.59961 130.042 2.40039 129.343 1.59961C128.943 1.2002 128.443 1 127.943 1C127.443 1 126.943 1.2002 126.542 1.59961Z" fill="#FF3F3A" fill-opacity="1.000000" fill-rule="evenodd"/>
	</g>
</svg>
